<svg xmlns="http://www.w3.org/2000/svg" xmlns:xlink="http://www.w3.org/1999/xlink" width="34px" height="34px" viewBox="0 0 34 34" version="1.1">
<g id="surface1">
<path style=" stroke:none;fill-rule:nonzero;fill:#ffffff;fill-opacity:1;" d="M 19.832031 17 C 18.929688 17 18.183594 17.355469 17.703125 17.898438 C 17.222656 18.441406 17 19.144531 17 19.832031 C 17 20.71875 16.355469 21.441406 16.082031 21.65625 C 15.660156 21.988281 15.894531 22.664062 16.433594 22.667969 L 19.265625 22.667969 C 20.15625 22.667969 20.984375 22.40625 21.613281 21.917969 C 22.242188 21.425781 22.667969 20.679688 22.667969 19.832031 C 22.667969 19.058594 22.449219 18.335938 21.953125 17.808594 C 21.453125 17.285156 20.710938 17 19.832031 17 Z M 19.832031 18.132812 C 20.480469 18.132812 20.871094 18.316406 21.125 18.585938 C 21.382812 18.859375 21.535156 19.269531 21.535156 19.832031 C 21.535156 20.324219 21.316406 20.710938 20.921875 21.023438 C 20.519531 21.332031 19.933594 21.535156 19.265625 21.535156 L 17.652344 21.535156 C 17.921875 21.078125 18.132812 20.511719 18.132812 19.832031 C 18.132812 19.390625 18.28125 18.957031 18.550781 18.652344 C 18.820312 18.34375 19.210938 18.132812 19.832031 18.132812 Z M 33.1875 5.679688 C 33.046875 5.695312 32.925781 5.730469 32.789062 5.78125 C 32.519531 5.871094 32.207031 6.019531 31.839844 6.203125 C 31.101562 6.578125 30.164062 7.125 29.175781 7.75 C 27.191406 9 25.027344 10.535156 23.914062 11.648438 C 22.855469 12.707031 22.085938 13.667969 21.722656 14.636719 C 21.359375 15.601562 21.511719 16.648438 22.261719 17.402344 C 23.015625 18.15625 24.066406 18.308594 25.03125 17.945312 C 25.996094 17.582031 26.960938 16.808594 28.019531 15.75 C 29.128906 14.636719 30.664062 12.472656 31.917969 10.492188 C 32.542969 9.5 33.089844 8.5625 33.464844 7.824219 C 33.652344 7.457031 33.796875 7.144531 33.890625 6.875 C 33.933594 6.738281 33.972656 6.621094 33.988281 6.476562 C 34.003906 6.335938 34.039062 6.105469 33.796875 5.863281 C 33.554688 5.621094 33.332031 5.660156 33.1875 5.675781 Z M 32.457031 7.316406 C 32.105469 7.996094 31.570312 8.917969 30.960938 9.886719 C 29.734375 11.828125 28.171875 14 27.21875 14.949219 C 26.210938 15.957031 25.316406 16.628906 24.632812 16.886719 C 23.949219 17.140625 23.550781 17.085938 23.066406 16.601562 C 22.582031 16.113281 22.527344 15.71875 22.78125 15.035156 C 23.039062 14.347656 23.710938 13.453125 24.71875 12.449219 C 25.671875 11.496094 27.839844 9.933594 29.78125 8.710938 C 30.75 8.09375 31.671875 7.558594 32.355469 7.210938 C 32.507812 7.171875 32.503906 7.238281 32.457031 7.3125 Z M 2.832031 9.066406 L 22.101562 9.066406 C 22.414062 9.066406 22.667969 9.320312 22.667969 9.632812 C 22.667969 9.949219 22.414062 10.199219 22.101562 10.199219 L 2.832031 10.199219 C 2.519531 10.199219 2.265625 9.949219 2.265625 9.632812 C 2.265625 9.320312 2.519531 9.066406 2.832031 9.066406 Z M 7.933594 7.367188 C 7.933594 7.679688 7.679688 7.933594 7.367188 7.933594 C 7.054688 7.933594 6.800781 7.679688 6.800781 7.367188 C 6.800781 7.054688 7.054688 6.800781 7.367188 6.800781 C 7.679688 6.800781 7.933594 7.054688 7.933594 7.367188 Z M 5.667969 7.367188 C 5.667969 7.679688 5.414062 7.933594 5.101562 7.933594 C 4.789062 7.933594 4.535156 7.679688 4.535156 7.367188 C 4.535156 7.054688 4.789062 6.800781 5.101562 6.800781 C 5.414062 6.800781 5.667969 7.054688 5.667969 7.367188 Z M 3.398438 7.367188 C 3.398438 7.679688 3.144531 7.933594 2.832031 7.933594 C 2.519531 7.933594 2.265625 7.679688 2.265625 7.367188 C 2.265625 7.054688 2.519531 6.800781 2.832031 6.800781 C 3.144531 6.800781 3.398438 7.054688 3.398438 7.367188 Z M 1.699219 4.535156 C 0.769531 4.535156 0 5.300781 0 6.234375 L 0 27.765625 C 0 28.699219 0.769531 29.464844 1.699219 29.464844 L 30.035156 29.464844 C 30.964844 29.464844 31.734375 28.699219 31.734375 27.765625 L 31.734375 14.167969 C 31.734375 13.410156 30.601562 13.414062 30.601562 14.167969 L 30.601562 27.765625 C 30.601562 28.089844 30.359375 28.332031 30.035156 28.332031 L 1.699219 28.332031 C 1.375 28.332031 1.132812 28.089844 1.132812 27.765625 L 1.132812 6.234375 C 1.132812 5.910156 1.375 5.667969 1.699219 5.667969 L 30.035156 5.667969 C 30.785156 5.667969 30.777344 4.535156 30.035156 4.535156 Z M 1.699219 4.535156 "/>
</g>
</svg>