<svg xmlns="http://www.w3.org/2000/svg" xmlns:xlink="http://www.w3.org/1999/xlink" width="34px" height="34px" viewBox="0 0 34 34" version="1.1">
<g id="surface1">
<path style=" stroke:none;fill-rule:nonzero;fill:#ffffff;fill-opacity:1;" d="M 10.660156 26.378906 C 10.660156 26.941406 11.117188 27.398438 11.679688 27.398438 L 22.320312 27.398438 C 22.882812 27.398438 23.339844 26.941406 23.339844 26.378906 L 23.339844 24.578125 L 10.660156 24.578125 Z M 17 25.332031 C 17.363281 25.332031 17.65625 25.625 17.65625 25.988281 C 17.65625 26.347656 17.363281 26.640625 17 26.640625 C 16.636719 26.640625 16.34375 26.347656 16.34375 25.988281 C 16.34375 25.625 16.636719 25.332031 17 25.332031 Z M 17 25.332031 "/>
<path style=" stroke:none;fill-rule:nonzero;fill:#ffffff;fill-opacity:1;" d="M 22.320312 6.90625 L 21.996094 6.90625 C 21.980469 6.734375 21.832031 6.601562 21.65625 6.601562 L 20.253906 6.601562 C 20.078125 6.601562 19.933594 6.734375 19.914062 6.90625 L 11.679688 6.90625 C 11.117188 6.90625 10.660156 7.363281 10.660156 7.925781 L 10.660156 9.09375 C 10.472656 9.09375 10.320312 9.246094 10.320312 9.433594 L 10.320312 10.589844 C 10.320312 10.777344 10.472656 10.929688 10.660156 10.929688 L 10.660156 23.726562 L 23.339844 23.726562 L 23.339844 7.925781 C 23.339844 7.363281 22.882812 6.90625 22.320312 6.90625 Z M 14.425781 8.523438 L 19.574219 8.523438 C 19.808594 8.523438 19.996094 8.714844 19.996094 8.949219 C 19.996094 9.066406 19.949219 9.175781 19.875 9.25 C 19.796875 9.328125 19.691406 9.375 19.574219 9.375 L 14.425781 9.375 C 14.191406 9.375 14.003906 9.183594 14.003906 8.949219 C 14.003906 8.714844 14.191406 8.523438 14.425781 8.523438 Z M 19.574219 22.105469 L 14.425781 22.105469 C 14.191406 22.105469 14.003906 21.917969 14.003906 21.683594 C 14.003906 21.449219 14.191406 21.257812 14.425781 21.257812 L 19.574219 21.257812 C 19.808594 21.257812 19.996094 21.449219 19.996094 21.683594 C 19.996094 21.917969 19.808594 22.105469 19.574219 22.105469 Z M 21.914062 15.535156 C 21.914062 15.785156 21.726562 15.992188 21.480469 16.023438 L 21.4375 16.027344 C 21.011719 16.078125 20.652344 16.355469 20.492188 16.75 C 20.488281 16.757812 20.488281 16.761719 20.484375 16.765625 C 20.320312 17.160156 20.375 17.613281 20.640625 17.949219 L 20.667969 17.984375 C 20.820312 18.179688 20.804688 18.460938 20.628906 18.636719 L 20.320312 18.945312 C 20.144531 19.121094 19.863281 19.136719 19.667969 18.984375 L 19.632812 18.957031 C 19.296875 18.691406 18.84375 18.636719 18.449219 18.800781 C 18.445312 18.804688 18.441406 18.804688 18.433594 18.808594 C 18.039062 18.96875 17.761719 19.328125 17.710938 19.753906 L 17.707031 19.796875 C 17.675781 20.042969 17.46875 20.230469 17.21875 20.230469 L 16.78125 20.230469 C 16.53125 20.230469 16.324219 20.042969 16.292969 19.796875 L 16.289062 19.753906 C 16.238281 19.328125 15.960938 18.96875 15.566406 18.808594 C 15.558594 18.804688 15.554688 18.804688 15.550781 18.800781 C 15.15625 18.636719 14.703125 18.691406 14.367188 18.957031 L 14.332031 18.984375 C 14.136719 19.136719 13.855469 19.121094 13.679688 18.945312 L 13.371094 18.636719 C 13.195312 18.460938 13.179688 18.179688 13.332031 17.984375 L 13.359375 17.949219 C 13.625 17.613281 13.679688 17.160156 13.515625 16.765625 C 13.511719 16.761719 13.511719 16.757812 13.507812 16.75 C 13.347656 16.355469 12.988281 16.078125 12.5625 16.027344 L 12.519531 16.023438 C 12.273438 15.992188 12.085938 15.785156 12.085938 15.535156 L 12.085938 15.097656 C 12.085938 14.847656 12.273438 14.640625 12.519531 14.609375 L 12.5625 14.605469 C 12.988281 14.554688 13.347656 14.277344 13.507812 13.882812 C 13.511719 13.875 13.511719 13.871094 13.515625 13.867188 C 13.679688 13.472656 13.625 13.019531 13.359375 12.683594 L 13.332031 12.648438 C 13.179688 12.453125 13.195312 12.171875 13.371094 11.996094 L 13.679688 11.6875 C 13.855469 11.511719 14.136719 11.496094 14.332031 11.648438 L 14.367188 11.675781 C 14.703125 11.941406 15.15625 11.996094 15.550781 11.832031 C 15.554688 11.828125 15.558594 11.828125 15.566406 11.824219 C 15.960938 11.660156 16.238281 11.304688 16.289062 10.878906 L 16.292969 10.835938 C 16.324219 10.589844 16.53125 10.402344 16.78125 10.402344 L 17.21875 10.402344 C 17.46875 10.402344 17.675781 10.589844 17.707031 10.835938 L 17.710938 10.878906 C 17.761719 11.304688 18.039062 11.660156 18.433594 11.824219 C 18.441406 11.828125 18.445312 11.828125 18.449219 11.832031 C 18.84375 11.996094 19.296875 11.941406 19.632812 11.675781 L 19.667969 11.648438 C 19.863281 11.496094 20.144531 11.511719 20.320312 11.6875 L 20.628906 11.996094 C 20.804688 12.171875 20.820312 12.453125 20.667969 12.648438 L 20.640625 12.683594 C 20.375 13.019531 20.320312 13.472656 20.484375 13.867188 C 20.488281 13.871094 20.488281 13.875 20.492188 13.882812 C 20.652344 14.277344 21.011719 14.554688 21.4375 14.605469 L 21.480469 14.609375 C 21.726562 14.640625 21.914062 14.847656 21.914062 15.097656 Z M 21.914062 15.535156 "/>
<path style=" stroke:none;fill-rule:nonzero;fill:#ffffff;fill-opacity:1;" d="M 16.820312 12.5625 C 15.445312 12.648438 14.332031 13.761719 14.246094 15.136719 C 14.140625 16.800781 15.515625 18.175781 17.179688 18.070312 C 18.554688 17.984375 19.667969 16.871094 19.753906 15.496094 C 19.859375 13.832031 18.484375 12.457031 16.820312 12.5625 Z M 16.574219 16.613281 C 16.574219 16.789062 16.433594 16.929688 16.257812 16.929688 L 15.703125 16.929688 C 15.527344 16.929688 15.386719 16.789062 15.386719 16.613281 L 15.386719 16.058594 C 15.386719 15.882812 15.527344 15.742188 15.703125 15.742188 L 16.257812 15.742188 C 16.433594 15.742188 16.574219 15.882812 16.574219 16.058594 Z M 16.574219 14.574219 C 16.574219 14.75 16.433594 14.890625 16.257812 14.890625 L 15.703125 14.890625 C 15.527344 14.890625 15.386719 14.75 15.386719 14.574219 L 15.386719 14.019531 C 15.386719 13.84375 15.527344 13.703125 15.703125 13.703125 L 16.257812 13.703125 C 16.433594 13.703125 16.574219 13.84375 16.574219 14.019531 Z M 18.613281 16.613281 C 18.613281 16.789062 18.472656 16.929688 18.296875 16.929688 L 17.742188 16.929688 C 17.566406 16.929688 17.425781 16.789062 17.425781 16.613281 L 17.425781 16.058594 C 17.425781 15.882812 17.566406 15.742188 17.742188 15.742188 L 18.296875 15.742188 C 18.472656 15.742188 18.613281 15.882812 18.613281 16.058594 Z M 18.613281 14.574219 C 18.613281 14.75 18.472656 14.890625 18.296875 14.890625 L 17.742188 14.890625 C 17.566406 14.890625 17.425781 14.75 17.425781 14.574219 L 17.425781 14.019531 C 17.425781 13.84375 17.566406 13.703125 17.742188 13.703125 L 18.296875 13.703125 C 18.472656 13.703125 18.613281 13.84375 18.613281 14.019531 Z M 18.613281 14.574219 "/>
<path style=" stroke:none;fill-rule:nonzero;fill:#ffffff;fill-opacity:1;" d="M 27.796875 11.660156 L 27.796875 9.589844 C 28.351562 9.410156 28.753906 8.890625 28.753906 8.273438 C 28.753906 7.511719 28.132812 6.890625 27.371094 6.890625 C 26.605469 6.890625 25.988281 7.511719 25.988281 8.273438 C 25.988281 8.890625 26.390625 9.410156 26.945312 9.589844 L 26.945312 11.660156 C 26.945312 11.960938 26.699219 12.210938 26.394531 12.210938 L 24.1875 12.210938 L 24.1875 13.058594 L 26.394531 13.058594 C 27.167969 13.058594 27.796875 12.429688 27.796875 11.660156 Z M 27.796875 11.660156 "/>
<path style=" stroke:none;fill-rule:nonzero;fill:#ffffff;fill-opacity:1;" d="M 7.054688 11.660156 L 7.054688 9.589844 C 7.609375 9.410156 8.011719 8.890625 8.011719 8.273438 C 8.011719 7.511719 7.394531 6.890625 6.628906 6.890625 C 5.867188 6.890625 5.246094 7.511719 5.246094 8.273438 C 5.246094 8.890625 5.648438 9.410156 6.203125 9.589844 L 6.203125 11.660156 C 6.203125 12.429688 6.832031 13.058594 7.605469 13.058594 L 9.8125 13.058594 L 9.8125 12.210938 L 7.605469 12.210938 C 7.300781 12.210938 7.054688 11.960938 7.054688 11.660156 Z M 7.054688 11.660156 "/>
<path style=" stroke:none;fill-rule:nonzero;fill:#ffffff;fill-opacity:1;" d="M 27.371094 14 C 26.75 14 26.222656 14.414062 26.046875 14.976562 L 24.1875 14.976562 L 24.1875 15.792969 L 26.046875 15.792969 C 26.222656 16.355469 26.75 16.765625 27.371094 16.765625 C 28.132812 16.765625 28.753906 16.148438 28.753906 15.382812 C 28.753906 14.621094 28.132812 14 27.371094 14 Z M 27.371094 14 "/>
<path style=" stroke:none;fill-rule:nonzero;fill:#ffffff;fill-opacity:1;" d="M 6.628906 14 C 5.867188 14 5.246094 14.621094 5.246094 15.382812 C 5.246094 16.148438 5.867188 16.765625 6.628906 16.765625 C 7.25 16.765625 7.777344 16.355469 7.953125 15.792969 L 9.8125 15.792969 L 9.8125 14.976562 L 7.953125 14.976562 C 7.777344 14.414062 7.25 14 6.628906 14 Z M 6.628906 14 "/>
<path style=" stroke:none;fill-rule:nonzero;fill:#ffffff;fill-opacity:1;" d="M 6.203125 18.972656 L 6.203125 21.042969 C 5.648438 21.222656 5.246094 21.742188 5.246094 22.355469 C 5.246094 23.121094 5.867188 23.738281 6.628906 23.738281 C 7.394531 23.738281 8.011719 23.121094 8.011719 22.355469 C 8.011719 21.742188 7.609375 21.222656 7.054688 21.042969 L 7.054688 18.972656 C 7.054688 18.671875 7.300781 18.421875 7.605469 18.421875 L 9.8125 18.421875 L 9.8125 17.574219 L 7.605469 17.574219 C 6.832031 17.574219 6.203125 18.203125 6.203125 18.972656 Z M 6.203125 18.972656 "/>
<path style=" stroke:none;fill-rule:nonzero;fill:#ffffff;fill-opacity:1;" d="M 27.796875 21.042969 L 27.796875 18.972656 C 27.796875 18.203125 27.167969 17.574219 26.394531 17.574219 L 24.1875 17.574219 L 24.1875 18.421875 L 26.394531 18.421875 C 26.699219 18.421875 26.945312 18.671875 26.945312 18.972656 L 26.945312 21.042969 C 26.390625 21.222656 25.988281 21.742188 25.988281 22.355469 C 25.988281 23.121094 26.605469 23.738281 27.371094 23.738281 C 28.132812 23.738281 28.753906 23.121094 28.753906 22.355469 C 28.753906 21.742188 28.351562 21.222656 27.796875 21.042969 Z M 27.796875 21.042969 "/>
</g>
</svg>