<svg xmlns="http://www.w3.org/2000/svg" xmlns:xlink="http://www.w3.org/1999/xlink" width="34px" height="34px" viewBox="0 0 34 34" version="1.1">
<g id="surface1">
<path style=" stroke:none;fill-rule:nonzero;fill:#ffffff;fill-opacity:1;" d="M 6.417969 9.851562 L 4.960938 9.300781 C 3.628906 8.800781 2.144531 9.472656 1.644531 10.804688 C 1.140625 12.136719 1.816406 13.621094 3.144531 14.121094 L 6.417969 15.355469 Z M 6.417969 9.851562 "/>
<path style=" stroke:none;fill-rule:nonzero;fill:#ffffff;fill-opacity:1;" d="M 25.863281 10.910156 C 25.847656 10.964844 25.832031 11.011719 25.816406 11.0625 L 25.816406 28.929688 C 25.816406 29.425781 25.613281 29.878906 25.289062 30.203125 C 24.964844 30.527344 24.511719 30.730469 24.015625 30.730469 L 10.824219 30.730469 C 10.886719 30.625 10.945312 30.515625 10.992188 30.394531 C 11.078125 30.167969 11.117188 29.933594 11.117188 29.703125 C 11.117188 29.308594 10.996094 28.925781 10.777344 28.601562 C 10.558594 28.277344 10.242188 28.019531 9.847656 27.871094 L 7.816406 27.105469 C 7.585938 27.019531 7.355469 26.976562 7.125 26.976562 C 6.730469 26.976562 6.34375 27.097656 6.019531 27.320312 C 5.699219 27.539062 5.4375 27.855469 5.289062 28.25 C 5.203125 28.476562 5.164062 28.710938 5.164062 28.9375 C 5.164062 29.335938 5.285156 29.71875 5.503906 30.042969 C 5.726562 30.367188 6.039062 30.625 6.433594 30.773438 L 8.464844 31.539062 C 8.695312 31.625 8.925781 31.667969 9.15625 31.667969 C 9.550781 31.667969 9.9375 31.542969 10.261719 31.324219 C 10.316406 31.289062 10.367188 31.242188 10.417969 31.199219 C 12.042969 32.5625 14.585938 33.90625 18.367188 33.996094 C 26.269531 34.183594 28.371094 28.328125 29.511719 21.910156 C 29.511719 21.910156 32.238281 9.617188 32.421875 8.96875 C 33.347656 5.71875 27.617188 4.738281 25.863281 10.910156 Z M 25.863281 10.910156 "/>
<path style=" stroke:none;fill-rule:nonzero;fill:#ffffff;fill-opacity:1;" d="M 9.496094 16.484375 L 9.496094 2.925781 L 22.742188 2.925781 L 22.742188 24.617188 L 11.394531 24.617188 C 11.367188 24.847656 11.316406 25.078125 11.230469 25.304688 C 11.015625 25.875 10.632812 26.339844 10.164062 26.660156 C 10.039062 26.746094 9.910156 26.816406 9.777344 26.878906 L 10.164062 27.027344 C 10.734375 27.242188 11.203125 27.625 11.519531 28.09375 C 11.78125 28.476562 11.945312 28.917969 11.996094 29.378906 L 24.015625 29.378906 C 24.144531 29.378906 24.25 29.332031 24.335938 29.25 C 24.417969 29.164062 24.46875 29.054688 24.46875 28.929688 L 24.46875 0.449219 C 24.46875 0.324219 24.417969 0.214844 24.335938 0.132812 C 24.25 0.0507812 24.144531 0 24.015625 0 L 8.21875 0 C 8.09375 0 7.984375 0.0507812 7.902344 0.132812 C 7.820312 0.214844 7.769531 0.324219 7.769531 0.449219 L 7.769531 15.765625 L 8.949219 16.207031 C 9.144531 16.28125 9.328125 16.375 9.496094 16.484375 Z M 16.117188 27.941406 C 15.683594 27.941406 15.332031 27.585938 15.332031 27.152344 C 15.332031 26.714844 15.683594 26.363281 16.117188 26.363281 C 16.554688 26.363281 16.90625 26.714844 16.90625 27.152344 C 16.90625 27.585938 16.554688 27.941406 16.117188 27.941406 Z M 16.117188 27.941406 "/>
<path style=" stroke:none;fill-rule:nonzero;fill:#ffffff;fill-opacity:1;" d="M 7.859375 26.128906 C 8.089844 26.214844 8.324219 26.257812 8.550781 26.257812 C 8.949219 26.257812 9.332031 26.136719 9.65625 25.914062 C 9.980469 25.695312 10.238281 25.378906 10.386719 24.984375 C 10.472656 24.757812 10.511719 24.523438 10.511719 24.296875 C 10.511719 23.898438 10.390625 23.515625 10.171875 23.191406 C 9.953125 22.867188 9.636719 22.609375 9.242188 22.460938 L 7.210938 21.695312 C 6.984375 21.609375 6.75 21.570312 6.523438 21.570312 C 6.125 21.570312 5.742188 21.691406 5.417969 21.910156 C 5.09375 22.128906 4.835938 22.445312 4.6875 22.839844 C 4.601562 23.066406 4.558594 23.300781 4.558594 23.53125 C 4.558594 23.925781 4.679688 24.3125 4.902344 24.632812 C 5.121094 24.957031 5.4375 25.214844 5.832031 25.367188 Z M 7.859375 26.128906 "/>
<path style=" stroke:none;fill-rule:nonzero;fill:#ffffff;fill-opacity:1;" d="M 7.25 20.71875 C 7.476562 20.808594 7.710938 20.847656 7.941406 20.847656 C 8.335938 20.847656 8.722656 20.726562 9.042969 20.507812 C 9.367188 20.285156 9.625 19.972656 9.773438 19.578125 C 9.863281 19.347656 9.902344 19.117188 9.902344 18.886719 C 9.902344 18.492188 9.78125 18.105469 9.5625 17.78125 C 9.339844 17.457031 9.027344 17.199219 8.632812 17.050781 L 6.601562 16.285156 C 6.371094 16.199219 6.140625 16.160156 5.910156 16.160156 C 5.515625 16.160156 5.128906 16.28125 4.804688 16.5 C 4.484375 16.71875 4.222656 17.035156 4.074219 17.429688 C 3.988281 17.660156 3.949219 17.890625 3.949219 18.121094 C 3.949219 18.515625 4.070312 18.902344 4.289062 19.226562 C 4.507812 19.546875 4.824219 19.808594 5.21875 19.957031 Z M 7.25 20.71875 "/>
<path style=" stroke:none;fill-rule:nonzero;fill:#ffffff;fill-opacity:1;" d="M 16.117188 19.625 C 18.804688 19.625 20.984375 17.445312 20.984375 14.757812 C 20.984375 12.070312 18.804688 9.894531 16.117188 9.894531 C 13.429688 9.894531 11.253906 12.070312 11.253906 14.757812 C 11.253906 17.445312 13.429688 19.625 16.117188 19.625 Z M 18.96875 17.605469 C 18.546875 18.027344 18.035156 18.351562 17.464844 18.554688 C 17.738281 18.226562 17.964844 17.800781 18.144531 17.3125 L 19.234375 17.3125 C 19.148438 17.414062 19.058594 17.511719 18.96875 17.605469 Z M 19.542969 16.882812 L 18.285156 16.882812 C 18.445312 16.304688 18.542969 15.660156 18.558594 14.972656 L 20.140625 14.972656 C 20.105469 15.671875 19.886719 16.320312 19.542969 16.882812 Z M 20.140625 14.542969 L 18.558594 14.542969 C 18.542969 13.855469 18.445312 13.210938 18.285156 12.636719 L 19.542969 12.636719 C 19.886719 13.195312 20.105469 13.84375 20.140625 14.542969 Z M 18.96875 11.910156 C 19.058594 12.003906 19.148438 12.101562 19.234375 12.203125 L 18.144531 12.203125 C 18.066406 11.992188 17.980469 11.792969 17.886719 11.609375 C 17.761719 11.367188 17.621094 11.148438 17.464844 10.960938 C 18.035156 11.164062 18.546875 11.492188 18.96875 11.910156 Z M 16.335938 10.734375 C 16.402344 10.742188 16.46875 10.746094 16.535156 10.75 C 16.640625 10.800781 16.746094 10.863281 16.847656 10.949219 C 17.167969 11.207031 17.460938 11.644531 17.683594 12.203125 L 16.335938 12.203125 Z M 16.335938 12.636719 L 17.832031 12.636719 C 18.003906 13.195312 18.109375 13.847656 18.128906 14.542969 L 16.335938 14.542969 Z M 16.335938 14.972656 L 18.125 14.972656 C 18.105469 15.671875 18.003906 16.320312 17.832031 16.878906 L 16.335938 16.878906 Z M 16.335938 17.3125 L 17.679688 17.3125 C 17.625 17.453125 17.566406 17.589844 17.503906 17.710938 C 17.3125 18.082031 17.085938 18.375 16.847656 18.566406 C 16.746094 18.652344 16.640625 18.71875 16.535156 18.765625 C 16.46875 18.773438 16.402344 18.777344 16.335938 18.78125 Z M 13.269531 17.605469 C 13.175781 17.511719 13.085938 17.414062 13.003906 17.3125 L 14.09375 17.3125 C 14.167969 17.523438 14.253906 17.722656 14.351562 17.910156 C 14.476562 18.152344 14.613281 18.367188 14.769531 18.554688 C 14.199219 18.351562 13.6875 18.027344 13.269531 17.605469 Z M 15.902344 18.78125 C 15.835938 18.777344 15.769531 18.773438 15.699219 18.765625 C 15.597656 18.71875 15.488281 18.652344 15.386719 18.566406 C 15.070312 18.308594 14.777344 17.871094 14.550781 17.3125 L 15.902344 17.3125 Z M 15.902344 16.882812 L 14.402344 16.882812 C 14.230469 16.320312 14.125 15.667969 14.109375 14.972656 L 15.902344 14.972656 Z M 15.902344 14.542969 L 14.109375 14.542969 C 14.125 13.847656 14.234375 13.195312 14.402344 12.636719 L 15.902344 12.636719 Z M 15.386719 10.949219 C 15.488281 10.863281 15.597656 10.800781 15.699219 10.75 C 15.769531 10.746094 15.835938 10.742188 15.902344 10.734375 L 15.902344 12.203125 L 14.554688 12.203125 C 14.609375 12.066406 14.667969 11.929688 14.734375 11.804688 C 14.925781 11.433594 15.148438 11.140625 15.386719 10.949219 Z M 13.269531 11.910156 C 13.6875 11.492188 14.199219 11.164062 14.769531 10.960938 C 14.5 11.292969 14.269531 11.714844 14.09375 12.203125 L 13.003906 12.203125 C 13.085938 12.101562 13.175781 12.003906 13.269531 11.910156 Z M 12.695312 12.636719 L 13.953125 12.636719 C 13.789062 13.210938 13.695312 13.855469 13.675781 14.542969 L 12.09375 14.542969 C 12.132812 13.84375 12.347656 13.195312 12.695312 12.636719 Z M 13.679688 14.972656 C 13.695312 15.660156 13.789062 16.304688 13.953125 16.878906 L 12.695312 16.878906 C 12.347656 16.320312 12.132812 15.671875 12.09375 14.972656 Z M 13.679688 14.972656 "/>
</g>
</svg>