<svg xmlns="http://www.w3.org/2000/svg" xmlns:xlink="http://www.w3.org/1999/xlink" width="34px" height="34px" viewBox="0 0 34 34" version="1.1">
<g id="surface1">
<path style=" stroke:none;fill-rule:nonzero;fill:#ffffff;fill-opacity:1;" d="M 0.4375 32.53125 C 0.171875 32.421875 0 32.160156 0 31.875 L 0 9.207031 C 0 7.253906 1.585938 5.667969 3.542969 5.667969 L 4.25 5.667969 L 4.25 4.957031 C 4.25 3.003906 5.835938 1.417969 7.792969 1.417969 L 30.457031 1.417969 C 32.414062 1.417969 34 3.003906 34 4.957031 L 34 20.542969 C 34 22.496094 32.414062 24.082031 30.457031 24.082031 L 29.75 24.082031 L 29.75 24.792969 C 29.75 26.746094 28.164062 28.332031 26.207031 28.332031 L 5.25 28.332031 L 1.210938 32.375 C 1.078125 32.507812 0.894531 32.582031 0.707031 32.582031 C 0.617188 32.582031 0.523438 32.566406 0.4375 32.53125 Z M 1.417969 9.207031 L 1.417969 30.164062 L 4.457031 27.125 C 4.589844 26.992188 4.769531 26.917969 4.957031 26.917969 L 26.207031 26.917969 C 27.382812 26.917969 28.332031 25.964844 28.332031 24.792969 L 28.332031 9.207031 C 28.332031 8.035156 27.382812 7.082031 26.207031 7.082031 L 3.542969 7.082031 C 2.367188 7.082031 1.417969 8.035156 1.417969 9.207031 Z M 4.957031 4.957031 L 4.957031 5.667969 L 26.207031 5.667969 C 28.164062 5.667969 29.75 7.253906 29.75 9.207031 L 29.75 23.375 L 30.457031 23.375 C 32.023438 23.375 33.292969 22.105469 33.292969 20.542969 L 33.292969 4.957031 C 33.292969 3.394531 32.023438 2.125 30.457031 2.125 L 7.792969 2.125 C 6.226562 2.125 4.957031 3.394531 4.957031 4.957031 Z M 7.792969 19.832031 C 7.402344 19.832031 7.082031 19.515625 7.082031 19.125 C 7.082031 18.734375 7.402344 18.417969 7.792969 18.417969 L 21.957031 18.417969 C 22.347656 18.417969 22.667969 18.734375 22.667969 19.125 C 22.667969 19.515625 22.347656 19.832031 21.957031 19.832031 Z M 7.792969 15.582031 C 7.402344 15.582031 7.082031 15.265625 7.082031 14.875 C 7.082031 14.484375 7.402344 14.167969 7.792969 14.167969 L 21.957031 14.167969 C 22.347656 14.167969 22.667969 14.484375 22.667969 14.875 C 22.667969 15.265625 22.347656 15.582031 21.957031 15.582031 Z M 7.792969 15.582031 "/>
</g>
</svg>